# xmcd CD database file
# Copyright (C) 1997 Ti Kan
# 
# Track frame offsets:
#     150
#     14780
#     29502
#     45237
#     63535
#     78452
#     94727
#     110857
#     122922
#     134007
# 
# Disc length: 1932 seconds
# 
# Revision: 1
# Processed by: cddbd v1.4b41PL1 Copyright (c) Steve Scherf et al.
# Submitted via: DiscPlay 4.0.2
# 
DISCID=91078a0a
DTITLE=Merle Haggard and George Jones - A Taste of Yesterday's Wine
DYEAR=1900
DGENRE=
TTITLE0=Yesterday's Wine
TTITLE1=After I Sing All My Songs
TTITLE2=I Think I've Found A Way
TTITLE3=Brothers, The
TTITLE4=Mobile Bay
TTITLE5=C.C. Waterback
TTITLE6=Silver Eagle
TTITLE7=Must've Been Drunk
TTITLE8=I Haven't Found Her Yet
TTITLE9=No Show Jones
EXTD=
EXTT0=
EXTT1=
EXTT2=
EXTT3=
EXTT4=
EXTT5=
EXTT6=
EXTT7=
EXTT8=
EXTT9=
PLAYORDER=
